<svg width="95" height="95" viewBox="0 0 95 95" fill="none" xmlns="http://www.w3.org/2000/svg">
<circle cx="2.5" cy="2.5" r="2.5" fill="#D9D9D9"/>
<circle cx="22.5" cy="2.5" r="2.5" fill="#D9D9D9"/>
<circle cx="42.5" cy="2.5" r="2.5" fill="#D9D9D9"/>
<circle cx="62.5" cy="2.5" r="2.5" fill="#D9D9D9"/>
<circle cx="82.5" cy="2.5" r="2.5" fill="#D9D9D9"/>
<circle cx="12.5" cy="2.5" r="2.5" fill="#D9D9D9"/>
<circle cx="32.5" cy="2.5" r="2.5" fill="#D9D9D9"/>
<circle cx="52.5" cy="2.5" r="2.5" fill="#D9D9D9"/>
<circle cx="72.5" cy="2.5" r="2.5" fill="#D9D9D9"/>
<circle cx="92.5" cy="2.5" r="2.5" fill="#D9D9D9"/>
<circle cx="2.5" cy="22.5" r="2.5" fill="#D9D9D9"/>
<circle cx="22.5" cy="22.5" r="2.5" fill="#D9D9D9"/>
<circle cx="42.5" cy="22.5" r="2.5" fill="#D9D9D9"/>
<circle cx="62.5" cy="22.5" r="2.5" fill="#D9D9D9"/>
<circle cx="82.5" cy="22.5" r="2.5" fill="#D9D9D9"/>
<circle cx="12.5" cy="22.5" r="2.5" fill="#D9D9D9"/>
<circle cx="32.5" cy="22.5" r="2.5" fill="#D9D9D9"/>
<circle cx="52.5" cy="22.5" r="2.5" fill="#D9D9D9"/>
<circle cx="72.5" cy="22.5" r="2.5" fill="#D9D9D9"/>
<circle cx="92.5" cy="22.5" r="2.5" fill="#D9D9D9"/>
<circle cx="2.5" cy="42.5" r="2.5" fill="#D9D9D9"/>
<circle cx="22.5" cy="42.5" r="2.5" fill="#D9D9D9"/>
<circle cx="42.5" cy="42.5" r="2.5" fill="#D9D9D9"/>
<circle cx="62.5" cy="42.5" r="2.5" fill="#D9D9D9"/>
<circle cx="82.5" cy="42.5" r="2.5" fill="#D9D9D9"/>
<circle cx="12.5" cy="42.5" r="2.5" fill="#D9D9D9"/>
<circle cx="32.5" cy="42.5" r="2.5" fill="#D9D9D9"/>
<circle cx="52.5" cy="42.5" r="2.5" fill="#D9D9D9"/>
<circle cx="72.5" cy="42.5" r="2.5" fill="#D9D9D9"/>
<circle cx="92.5" cy="42.5" r="2.5" fill="#D9D9D9"/>
<circle cx="2.5" cy="62.5" r="2.5" fill="#D9D9D9"/>
<circle cx="22.5" cy="62.5" r="2.5" fill="#D9D9D9"/>
<circle cx="42.5" cy="62.5" r="2.5" fill="#D9D9D9"/>
<circle cx="62.5" cy="62.5" r="2.5" fill="#D9D9D9"/>
<circle cx="82.5" cy="62.5" r="2.5" fill="#D9D9D9"/>
<circle cx="12.5" cy="62.5" r="2.5" fill="#D9D9D9"/>
<circle cx="32.5" cy="62.5" r="2.5" fill="#D9D9D9"/>
<circle cx="52.5" cy="62.5" r="2.5" fill="#D9D9D9"/>
<circle cx="72.5" cy="62.5" r="2.5" fill="#D9D9D9"/>
<circle cx="92.5" cy="62.5" r="2.5" fill="#D9D9D9"/>
<circle cx="2.5" cy="82.5" r="2.5" fill="#D9D9D9"/>
<circle cx="22.5" cy="82.5" r="2.5" fill="#D9D9D9"/>
<circle cx="42.5" cy="82.5" r="2.5" fill="#D9D9D9"/>
<circle cx="62.5" cy="82.5" r="2.5" fill="#D9D9D9"/>
<circle cx="82.5" cy="82.5" r="2.5" fill="#D9D9D9"/>
<circle cx="12.5" cy="82.5" r="2.5" fill="#D9D9D9"/>
<circle cx="32.5" cy="82.5" r="2.5" fill="#D9D9D9"/>
<circle cx="52.5" cy="82.5" r="2.5" fill="#D9D9D9"/>
<circle cx="72.5" cy="82.5" r="2.5" fill="#D9D9D9"/>
<circle cx="92.5" cy="82.5" r="2.5" fill="#D9D9D9"/>
<circle cx="2.5" cy="12.5" r="2.5" fill="#D9D9D9"/>
<circle cx="22.5" cy="12.5" r="2.5" fill="#D9D9D9"/>
<circle cx="42.5" cy="12.5" r="2.5" fill="#D9D9D9"/>
<circle cx="62.5" cy="12.5" r="2.5" fill="#D9D9D9"/>
<circle cx="82.5" cy="12.5" r="2.5" fill="#D9D9D9"/>
<circle cx="12.5" cy="12.5" r="2.5" fill="#D9D9D9"/>
<circle cx="32.5" cy="12.5" r="2.5" fill="#D9D9D9"/>
<circle cx="52.5" cy="12.5" r="2.5" fill="#D9D9D9"/>
<circle cx="72.5" cy="12.5" r="2.5" fill="#D9D9D9"/>
<circle cx="92.5" cy="12.5" r="2.5" fill="#D9D9D9"/>
<circle cx="2.5" cy="32.5" r="2.5" fill="#D9D9D9"/>
<circle cx="22.5" cy="32.5" r="2.5" fill="#D9D9D9"/>
<circle cx="42.5" cy="32.5" r="2.5" fill="#D9D9D9"/>
<circle cx="62.5" cy="32.5" r="2.5" fill="#D9D9D9"/>
<circle cx="82.5" cy="32.5" r="2.5" fill="#D9D9D9"/>
<circle cx="12.5" cy="32.5" r="2.5" fill="#D9D9D9"/>
<circle cx="32.5" cy="32.5" r="2.5" fill="#D9D9D9"/>
<circle cx="52.5" cy="32.5" r="2.5" fill="#D9D9D9"/>
<circle cx="72.5" cy="32.5" r="2.5" fill="#D9D9D9"/>
<circle cx="92.5" cy="32.5" r="2.5" fill="#D9D9D9"/>
<circle cx="2.5" cy="52.5" r="2.5" fill="#D9D9D9"/>
<circle cx="22.5" cy="52.5" r="2.5" fill="#D9D9D9"/>
<circle cx="42.5" cy="52.5" r="2.5" fill="#D9D9D9"/>
<circle cx="62.5" cy="52.5" r="2.5" fill="#D9D9D9"/>
<circle cx="82.5" cy="52.5" r="2.5" fill="#D9D9D9"/>
<circle cx="12.5" cy="52.5" r="2.5" fill="#D9D9D9"/>
<circle cx="32.5" cy="52.5" r="2.5" fill="#D9D9D9"/>
<circle cx="52.5" cy="52.5" r="2.5" fill="#D9D9D9"/>
<circle cx="72.5" cy="52.5" r="2.5" fill="#D9D9D9"/>
<circle cx="92.5" cy="52.5" r="2.5" fill="#D9D9D9"/>
<circle cx="2.5" cy="72.5" r="2.5" fill="#D9D9D9"/>
<circle cx="22.5" cy="72.5" r="2.5" fill="#D9D9D9"/>
<circle cx="42.5" cy="72.5" r="2.5" fill="#D9D9D9"/>
<circle cx="62.5" cy="72.5" r="2.5" fill="#D9D9D9"/>
<circle cx="82.5" cy="72.5" r="2.5" fill="#D9D9D9"/>
<circle cx="12.5" cy="72.5" r="2.5" fill="#D9D9D9"/>
<circle cx="32.5" cy="72.5" r="2.5" fill="#D9D9D9"/>
<circle cx="52.5" cy="72.5" r="2.5" fill="#D9D9D9"/>
<circle cx="72.5" cy="72.5" r="2.5" fill="#D9D9D9"/>
<circle cx="92.5" cy="72.5" r="2.5" fill="#D9D9D9"/>
<circle cx="2.5" cy="92.5" r="2.5" fill="#D9D9D9"/>
<circle cx="22.5" cy="92.5" r="2.5" fill="#D9D9D9"/>
<circle cx="42.5" cy="92.5" r="2.5" fill="#D9D9D9"/>
<circle cx="62.5" cy="92.5" r="2.5" fill="#D9D9D9"/>
<circle cx="82.5" cy="92.5" r="2.5" fill="#D9D9D9"/>
<circle cx="12.5" cy="92.5" r="2.5" fill="#D9D9D9"/>
<circle cx="32.5" cy="92.5" r="2.5" fill="#D9D9D9"/>
<circle cx="52.5" cy="92.5" r="2.5" fill="#D9D9D9"/>
<circle cx="72.5" cy="92.5" r="2.5" fill="#D9D9D9"/>
<circle cx="92.5" cy="92.5" r="2.5" fill="#D9D9D9"/>
</svg>
